<?xml version="1.0" encoding="UTF-8"?>
<svg id="Layer_1" xmlns="http://www.w3.org/2000/svg" viewBox="0 0 261.59 144.74">
  <defs>
    <style>
      .cls-1 {
        fill: #369992;
      }

      .cls-2 {
        fill: #cc6c20;
      }
    </style>
  </defs>
  <g>
    <path class="cls-1" d="M224.73,118.17l-.04-.03-16.03-10.26c-.44-.28-.99-.34-1.48-.16l-26.56,9.82c-.54.2-1.14.14-1.62-.17l-12.96-6.13c-1.9-.9-4.94-2.47-6.75-3.53-1.96-1.15-3.89-2.35-5.75-3.65l-19.15-13.4-15.03-10.52c-.95-.59-2.16-.56-3.08.07l-35.37,24.55c-.96.62-2.72-.12-5.71-1.84-4.94-2.82-11.33-5.35-12.65-5.74-2.14-.64-5.01-.54-11.35,2.55-2.8,1.37-16.34,9.02-30.59,17.15-2.35,1.34-17.57,10.16-20.21,11.69-.25.14-.39.4-.39.68v15.2c0,.16.13.29.29.29h261.3v-17.63c0-.22-.19-.39-.41-.37-17.03,1.51-30.99-5.64-36.45-8.58Z"/>
    <path class="cls-1" d="M261.59,91.62c0-3.44-.08-3.51-3.45-3.51-4.99,0-45.55,0-59.02,0-.74,0-1.48.05-2.2-.06-.41-.06-.97-.3-1.11-.62-.11-.25.23-.82.52-1.11,1.56-1.55,3.15-3.08,4.75-4.59,18.38-17.29,36.75-34.58,55.17-51.83,1.32-1.24,1.92-2.51,1.9-4.34-.09-7.41-.03-14.83-.04-22.24,0-3.16-.01-3.16-3.28-3.16-38.88,0-77.76,0-116.64,0-2.92,0-3.08.14-3.09,3.02-.02,8.95-.01,17.9,0,26.85,0,3.37.01,3.37,3.3,3.37,18.2,0,36.4,0,54.6.01.93,0,3,0,3.93.1.04.2-5.64,5.12-7.98,7.26-14.55,13.32-29.11,26.63-43.68,39.93C129.61,49.14,109.76,9.08,106.32,2.06,105.2-.23,103.56.03,98.74.02c-13.98-.03-21.56-.03-33.24.13-4.37.06-6.48-.34-7.56,1.92C55.48,7.23,7.01,104.84,3.12,112.72c-.94,1.9-2.16,4.37-3.12,6.36,0,0,.02,0,.03,0,1.02.03,2.01-.24,2.89-.77,7.04-4.23,40.93-24.6,44.49-26.33,5.3-2.59,9.3-3.74,12.95-3.74,1.61,0,3.14.22,4.67.68,1.8.54,8.52,3.18,14.07,6.3.15.08.32.07.46-.02l31.8-22.07c2.63-1.83,5.88-2.47,9.13-1.75,1.25.28,2.43.81,3.52,1.49l.11.07,16.79,11.75,9.72,6.8,7.86,5.5c3.32,2.33,6.84,4.37,10.51,6.1l11.33,5.36,23.73-8.77c1.18-.44,2.41-.66,3.67-.66,2.03,0,4,.58,5.71,1.67l15.91,10.18c13.09,8.22,29.06,8.27,31.88,8.21.2,0,.37-.17.37-.37,0-2.65,0-18.94,0-27.09ZM94.29,72.81c-8.23.03-16.46.03-24.69,0-1.99,0-2.28-.65-1.4-2.49,3.84-8.04,7.66-16.09,11.49-24.14.51-1.07,1.47-3.06,2.2-4.49.65,1.04,9.58,20.09,13.73,28.94.82,1.75.54,2.17-1.34,2.18Z"/>
  </g>
  <path class="cls-2" d="M224.73,118.17l-.04-.03-16.03-10.26c-.44-.28-.99-.34-1.48-.16l-26.56,9.82c-.54.2-1.14.14-1.62-.17l-12.96-6.13c-1.9-.9-4.94-2.47-6.75-3.53-1.96-1.15-3.89-2.35-5.75-3.65l-19.15-13.4-15.03-10.52c-.95-.59-2.16-.56-3.08.07l-35.37,24.55c-.96.62-2.72-.12-5.71-1.84-4.94-2.82-11.33-5.35-12.65-5.74-2.14-.64-5.01-.54-11.35,2.55-2.8,1.37-16.34,9.02-30.59,17.15-2.35,1.34-17.57,10.17-20.21,11.69-.25.14-.39.4-.39.68v15.2c0,.16.13.29.29.29h261.3v-17.63c0-.22-.19-.39-.41-.37-17.03,1.51-30.99-5.64-36.45-8.58Z"/>
</svg>