<?xml version="1.0" encoding="UTF-8"?>
<svg id="Layer_2" xmlns="http://www.w3.org/2000/svg" viewBox="0 0 741.6 786.9">
  <defs>
    <style>
      .cls-1 {
        fill: #cc6c20;
        stroke: #cc6c20;
        stroke-width: .5px;
      }
    </style>
  </defs>
  <g id="Cropped">
    <g>
      <circle class="cls-1" cx="359.74" cy="365.81" r="151.12" transform="translate(-153.3 361.52) rotate(-45)"/>
      <path class="cls-1" d="M740.86,786.65v-4.86s.05-2.15.05-2.15l-.04-4.98.04-2.67.02-1.42v-21.63s-.02-2.2-.02-2.2l.06-8.48v-.76s.09-51.24.09-51.24v-38.87s0-.76,0-.76v-.56s0-.53,0-.53l.07-12.85-.05-44.51v-.15s.07-3.45.07-3.45v-.15s-.03-6.85-.03-6.85v-.07s-.02-10.89-.02-10.89l-.03-6.31.08-17.71v-.05s-.03-.57-.03-.57l.02-.52.04-.37-.09-5.34.08-33.17-.06-17.75.09-20.88-.07-19.36.11-81.19v-8.88s.01-29.95.01-29.95l.09-2.25-.1-2.28.06-2.23-.06-2.24.03-20.54-.03-45.59-.09-17.88.04-28.82v-.02s.02-10.71.02-10.71v-.36s.03-41.68.03-41.68v-1.41s0-5.89,0-5.89h0s0-12.14,0-12.14l.03-18.23-.06-10.3.1-50.76V.25H98.33v26.01s.06,5.01.06,5.01l.07.62.15,19.37.26,4.24.08,4.87v8.29s-.23,10.45-.23,10.45l.08,1.61-.2,4.12.04,3.3.14,2.91.05.85v8.15s-1.74.75-1.74.75l-.99,1.38-2.69,5.77-1.4,3.62-.43.24-1,.05-1.27.84-.29.48-.11.8.1.28.74.61.42.62-.05.28-2.87,5.68-.17,1,.13,1.01-.13.87-1.28,2.11-.45.55-.31.11-1.58-.62h-1.33s-2,1.07-2,1.07l-2.74.85-2.52.21-.71-.04-1.78-.89-1.35-.91-.46-.52-.5-1.03-1.23-1.69-4.35-1.88-.2-.21-.07-.57.24-.56.81-.74.28-.57-.35-1.2-2.61-3.67-1.09-.4-3.32-3.53-1.16-2.05-4.29-.68-.89.02-.59.24-1.31,1.5-2.5,1.64-.26-.07-.6-.69-.65-1.25-.68-.18-.84.14-2.17,1.5-1.17.25-.78-.15-.29-.15-.17-.27-.05-.51.1-.45.07-.78.02-.51-.27-.42-.64-.43-4.38-.21-3.37.1-3.23,1.51-1.42,1.3-1.08.61-.67-.32-.77-1.41-.5-.21-3.63,2.89-.38.67-.47.41-5.55,1.53h-.97s-2.42.54-2.42.54l-1.4,1.17-.84,1-.25.56.02.88.18.34,1.38,1.42.91,1.92-.06.65-.47.81v.89l-.03.42.16.5.65.35.5.69.09.5-.19,1-1.2,1.35-.29.54-.06.55-.07,3.4.41,1.5,1.37,2.14.21.94-.36,1.96.23.4,1.76,1.06,1.05,1.05-.13,2.5,1.06,1.67,2.46,2.6.27.84.15.59.06.26-.09.44-.18.62-.32.75-2.02,1.34-.27,1.03v.81l.44,1.51.09.5-1.03,2.54-.8.7-.28.63,1.7,2.53-.32,3.34.73,2.07-.21,3.53-1.03,3.5v.52s.53,1.12.53,1.12l.91.95,1.4.92.33.62-.21,1.15-1,2.13.08,2.1,1.58,1.57,2.43,3.54.62,1.31-.12,2.09-.68,1.6-.78,1.12-.07.45.41,2.19.13,2.87.23.98.36.46.06.32-.14.62-.66.95-1.37,1.04-.44.69-.26,2.13.2,1.62.61,1.27.84,2.34.24,2.74.31.83,1.3,2.38,3.19,3.1,2.02,6.37.91,2.44,1.08,4.46-.2,4.45,1.33,5.44.52,3.82-.06,1.28.46,3.19.66.59.35.83.37,2.69-.04,3.21-.41,3.82-.74,1.57-1.18.79-1.46.42-2.67-.09-1.29.53-1.85,1.94-.31.63.5.84,2.61,1.22,1.21.88,1.08,1.3.23.98-.09.68-.4.83-2.62,2.23-.68,1.12-.57,1.45-.15,1.23.17,1.84.47,1.05.4,1.15.09.45.02.9-.11.84-.6,1.84-.08.61.04.98.42,1.19.24,1.02v.28s0,.68,0,.68l-.31,1.26-.14.94v.53s.35,1.47.35,1.47l-.04.72-.58,1.89-.17.95v.53s.2,1.68.2,1.68l.1.33.48,1.02.87,1.04.52.45,2.01,1.14.46.35,1.07.97.71.86.73,1.5.6,1.69.24,1.49.46,1.79,1.59,3.2.77,1.09.74.79.85.73,1.37.98.51.6.38.51.2.4.57.69.81.49.89.36.96.51.49.35.13.13.54.9.62.48.6.24.46.09.26.16.15.25.24.59.07.9.37,1.65.39.84.72,1.23.14.34.07.42.08.29.22.42.08.27.03.27v.18s-.11.67-.11.67l.08.38.03.44.28.45.68.76.36.63.15.67-.16,1.05.02.21.34,1.36,1.3,1.06.57.65-.02,1.27-.13.23-.28.25-.33.37.04.16v.64l.95,1.72,2.2,1.73,2.01,4.16,1.13,2.07.34,2.06v1.44s-.41,1.25-.41,1.25l-.12.54-.09,1.07.19,1.72-.02.29-.23.88-.47,1.31-.03.24.09.4,1.01,1.17.39.4.27.13,1.33-.13.95-.31,1.72-.26h.38s.55.22.55.22l.31.3.3.43.58,1.25.91.22.87.48,1.44.92.79.84.34.59.06,1.01.2.44.2.26.24.2.86.34,1.62.1.41.18,1.49,1.75.53.31.44.38,1.41,1.4.59,1.21.46.47,1.58.54,1.84.17,1.08.82.71.27.57.34.54.45.52.67.52.85,1.49,3.37,2.09,1.86.34.42v.36s-.16.79-.16.79l.15,1.13.3,1.2-.13.59.05.41.24.84.04.4-.02.45-.2.35-.37.27h-.74s-.31,0-.31,0l-.79.2-.45-.02-.37.03-.27.19-.17.29-.1.29-.08.26-.26.31-.85.38-.15.27-.21.43-.06.18-.21.24-1.65,1.42-2.23,2.39-.45.62-.47.4-1.02.59-.23.23-.09.29.12,1.22-.27.78-.34.3-1.41.57-.45.56-1.28.9-1.81.56-.9-.3-1.55.25-.71.59-2.49,3.41-1.1.95-.49.29-1.48.42-1.53-.07-.64.21-.43.42-.52,1.06-.79.78-.36.16-1.28.24-1.46.92-1.39-.24-.59.02-.74.23-.54.37-.59.65-.73,1-.24.66-.69.68-.1.16-.16,1.19-.29,1.21-.21,2.18v.63s.09.56.09.56l.4,1.18.07.75-.16,1.5-.27.85-.29.51-.42.49-.82.56-.59.25-.53.02-.29.12-.21.26-.04.28.04.33.31.82.02.4-.12.3-.16.14-.49.05-.22.09-.41.75-.61.56-.71.49-.11.17-.1.38-.22.34-1.32,1.35-.62.78-1.24.7-.21.03-.59-.17-.79.38-.86,1.21-.87,2.04.06.95.17.38.68.37.39.22.89.74.89.99.38.77.08.35v.31s-.1.18-.1.18l-.29.24-.36.18-.33.27-.19.2-.12.26-.02.23.05.29.1.26.17.35.52.47,1.04.93.12.29.05,1.09-.11.35-.22.23-1.16.87-.27.08-.99-.06-.29.17-.22.38-.12.49-.03.57.52,1.46.27.51.38,1.17.06.37-.1.52-.25.47-.57.43-.11.19,1.02,2.39.43,1.72,1.24,3.16.29,1.15.07.63-.02.83-.19.72-.28.73-.53,1.14.27.32.45.25.34.38.19.54.24.37.54.47.21.73.09,1.01-.2,1.46-.1.24-1.09.6-.95.27-.86.43-.62.4-.49.49-.33.53-.15.64.07.62.17.47.18.31.17.27.12.21.1.21.02.3-.02.24-.07.15-.15.24-.17.39-.25.45.02.39.12.54.15.42.12.6v.69l-.2.45-.17.42.02.72.22.61.28.35.15.36-.02.45-.25.39-.31.34-1.47,2.35.04,1.67.56,1.77.04.06,1.13,1.75.31.58-.03.22-2.24,1.5-2.17,1.64-.08.17-.17.98.04.93-.05.24-1.1,1.16-.54.26-.86.17-1,.62-.43.46-.74,1.35-.31.98-.25.45-.79,1.01-.59.63-1.34,2.19-.06.32.14,1.07-.62,2.16-.32.83-.71.83-1.04.92-.8.48-.42.11-.71-.02-1.99-.81-1.81.05-.99.43-.11.16-.04.3-.12.18-.52.39-1.17.17-1.18-.1-.48.21-.19.23-.03.15.03.26.31.55,1.19,1.62.67.63.14.25.04.29-.04.62,1.07,2.38.11.7.02.64-.37,2.37-.55,1.42-.35.67-.36.43-1.65,1.31-.81.98-.17.26v.25s1.02,2.21,1.02,2.21l.2.17.49.28.86.28,1.07.22,1.08.33,1.3.58.5.38.45.52.59,1.49.04.3-.31.45-1.76,1.17-.17.24.02.18.86,1.59.6.71.46.74.11.37v.6s-.31,1.29-.31,1.29l-.34,1.13.07.59.38,1.75-.02.41-.06.61-.41,1.04-.16.77.2,1.04-.08.53-.37.66-.29,1.09-.33.91-.38.66-.88,1.02-.88,2.68-.32,1.29-.22,1.21v.97s.18.45.18.45l.23.17.46.1.84.02.27.07.45.27.05.18-.09.57.02.47.27.79,1.63,2.12-.1,1.48.19.86.37.6.74.62.35.19h.32s.26-.18.26-.18l.36-.5.78-1.48.39-.33.56.31.27.25.69.96.76,1.22.32.25.9.34,2.28.27,1.44-.13.36-.11.28-.2.43-.66.4-.43.4-.18h.45s2.37.39,2.37.39l1.89.08,1.91.38.44.15.67.53.46.47.67.99.42.9.39,1.11.32,1.9.21,1.75.19.89.16.38.36.29h.19s.94-.33.94-.33l.12-.25.55-.23.66.17.25.27.18.83.05.95-.06.67-.18.56-.22.51-.41.64-.57.7-.29.54-.02.27.25,1.07.3.71.38.46,1.19,1.14.1.22.09.57-.03.93-.33,3.44v.03l.02.67-.44,4.54-.89.99-2.34,2.36-.28.15-.07.03-1.72.87-.66.76-.56.88-.08.32-.21.29-.88.82-.24.43-.12.35v1.33s-.1.85-.1.85l.08.41.44,1.07.2,1.56-1.57.02-.02,1.09-3.24.04v1.11s-2.22,0-2.22,0v1.13s-3.98.07-3.98.07l-.27.07-.12.71.02.15-.36.03-1.84-.4-3.29-.45h-.07s-1.11-.07-1.11-.07l-1.23-.3-.2-.06-.73-.14-.58-.02-1.29-1.1-.25-.12h-.15s-.49.62-.49.62l-1.13,1.71-.16.4-.24.93-.25.44-.4.87-.94,1.34v.71s-.05.13-.05.13l-1.8,3.08-.11.99-.32.69-.02.54-.66.9-.67.48-.85.88-.02.21.2.31.03.21-.14.3-1.3,1.04-.61.35-.27.32-.12.19-.06.24.1.55-1.2.49-.38-.1-.44-.32-.22-.08-1.04.58-.26.64.05,1.27.15.92.25.31.46.21.1.12.24.76v.22s-.1.62-.1.62l-.31.46-.15.37v.27s.32.4.32.4l-.05.34-.33.47-.58.5-.2.36-.03.32.03.2.2.28h.58l.87-.38.22.05.17.08.17.24.17.2.06.55-.07.31-.22.41-.24.21-1.06.45-.25.25-.02.15.15.56.35.34-.02.46-.54.8-.53.54-.13.62.24.52.61.4.07.44-.03.32-.17.36-.22.21-.31.05-.28.1-.03.12-.07.2-.07.08v.12s.18.64.18.64l-.22.43.05.45,40.19,14.34,32.12,11.58,60.26,22.01,3.97,1.52,33.09,12.15,35.44,13.16,11.74,4.44,33.26,11.7,54.81,19.83h435.67ZM163.28,365.81c0-108.53,87.93-196.46,196.46-196.46s196.46,87.93,196.46,196.46c0,46.09-15.87,88.5-42.41,121.94l126.47,126.47c8.88,8.88,8.88,23.24,0,32.02-8.88,8.78-23.24,8.88-32.02,0l-126.57-126.38c-33.44,26.54-75.84,42.41-121.94,42.41-108.53,0-196.46-87.93-196.46-196.46Z"/>
    </g>
  </g>
</svg>