<?xml version="1.0" encoding="UTF-8"?>
<svg id="Layer_1" xmlns="http://www.w3.org/2000/svg" viewBox="0 0 661.74 786.9">
  <defs>
    <style>
      .cls-1 {
        fill: #cc6c20;
        stroke: #cc6c20;
        stroke-width: .5px;
      }

      .cls-2 {
        fill: #fff;
      }
    </style>
  </defs>
  <g id="AZ">
    <path class="cls-1" d="M661.49.99v4.25s0,.09,0,.09l-.02,13.46v.06s0,53.54,0,53.54l-.09,45.29.05,9.19-.03,16.26v10.83s0,0,0,0v5.26s0,1.26,0,1.26l-.03,37.18v.32s-.02,9.56-.02,9.56v.02s-.03,25.71-.03,25.71l.08,15.95.03,40.67-.03,18.33.05,2-.05,1.99.08,2.03-.08,2.01v26.72s-.01,7.9-.01,7.9v.02l-.09,72.44.07,17.27-.08,18.63.06,15.83-.07,29.6.08,4.77-.04.33-.02.46.02.51v.04s-.06,15.8-.06,15.8l.03,5.63v9.72s.01.06.01.06v6.11s.02.13.02.13l-.06,3.08v.14s.04,39.72.04,39.72l-.06,11.46v.47s0,.5,0,.5v35.35s-.07,45.71-.07,45.71v.68s-.05,7.56-.05,7.56l.02,1.96v19.3s-.02,1.27-.02,1.27l-.04,2.38.04,4.44-.05,1.92v21.55s-.07,18.44-.07,18.44h0s-.04,2.62-.04,2.62v19.81s-26.17-.2-26.17-.2h-63.18s-19.59.11-19.59.11l-16.04-.11-36.64.15-38.43-.11-23.52.2h-8.5s-5.83-2.25-5.83-2.25l-49.81-18.69-48.05-17.83-30.57-11.25-13.63-4.98-1.23-.39-2.71-1.05-53.6-19.39-29.67-10.44-10.47-3.96-31.62-11.74-29.52-10.84-3.54-1.36-53.77-19.64-28.66-10.33L.3,629.72l-.04-.4.19-.38-.16-.57v-.11s.07-.07.07-.07l.06-.18.03-.11.25-.09.28-.05.2-.19.15-.32.03-.29-.06-.4-.55-.36-.21-.47.12-.55.48-.48.48-.71.02-.41-.32-.3-.14-.5.02-.14.22-.22.95-.4.21-.19.2-.36.06-.27-.05-.49-.15-.18-.15-.22-.15-.07-.19-.05-.78.34h-.52l-.18-.25-.03-.18.03-.29.18-.32.52-.45.29-.42.05-.31-.28-.36v-.24s.12-.33.12-.33l.27-.41.08-.56v-.2s-.21-.68-.21-.68l-.09-.11-.41-.18-.23-.28-.13-.82-.04-1.13.23-.57.93-.51.2.07.4.29.34.09,1.07-.44-.09-.49.05-.22.11-.17.24-.29.54-.31,1.16-.93.12-.27-.02-.19-.18-.28v-.18s.77-.79.77-.79l.6-.43.59-.8.02-.48.29-.61.1-.88,1.61-2.75.05-.11v-.63s.84-1.2.84-1.2l.36-.78.23-.39.22-.83.15-.36,1.01-1.52.44-.54h.13s.22.1.22.1l1.15.98.52.02.65.13.18.05,1.1.27.99.05h.07s2.93.41,2.93.41l1.64.35.32-.03-.02-.13.11-.64.24-.06,3.54-.06v-1.01s1.98,0,1.98,0v-.99s2.9-.04,2.9-.04l.02-.97,1.4-.02-.18-1.39-.39-.95-.07-.36.08-.76v-1.18s.11-.31.11-.31l.22-.38.78-.73.19-.26.07-.29.5-.79.59-.68,1.53-.78.06-.03.25-.13,2.09-2.1.79-.88.39-4.05-.02-.6v-.03l.3-3.07.02-.83-.08-.51-.09-.2-1.06-1.02-.34-.41-.27-.64-.22-.95.02-.24.26-.48.51-.63.37-.57.2-.46.16-.5.05-.59-.04-.85-.16-.74-.22-.24-.59-.15-.49.21-.1.22-.84.29h-.17s-.32-.25-.32-.25l-.15-.34-.17-.79-.18-1.56-.28-1.7-.35-.99-.37-.8-.6-.88-.41-.42-.6-.47-.4-.13-1.71-.34-1.69-.08-2.12-.36h-.4s-.36.17-.36.17l-.36.39-.39.59-.25.18-.32.1-1.29.11-2.04-.24-.8-.31-.29-.22-.68-1.09-.61-.86-.24-.22-.5-.27-.35.29-.69,1.32-.32.45-.23.16h-.28s-.31-.17-.31-.17l-.66-.56-.33-.54-.17-.77.09-1.32-1.46-1.89-.24-.7-.02-.42.08-.5-.05-.16-.4-.24-.24-.06-.75-.02-.41-.09-.2-.15-.15-.4v-.87s.19-1.08.19-1.08l.29-1.15.79-2.39.78-.91.33-.59.3-.81.26-.97.33-.59.07-.47-.17-.93.14-.69.37-.93.05-.54.02-.37-.34-1.56-.07-.53.31-1.01.27-1.15v-.53s-.09-.33-.09-.33l-.41-.66-.53-.63-.77-1.42v-.16s.14-.21.14-.21l1.57-1.05.28-.4-.04-.27-.53-1.33-.4-.47-.44-.34-1.16-.52-.97-.29-.95-.2-.77-.25-.43-.25-.18-.15-.91-1.97v-.22s.15-.23.15-.23l.72-.87,1.47-1.17.32-.39.31-.6.49-1.27.33-2.12-.02-.57-.1-.63-.95-2.12.04-.55-.03-.26-.13-.22-.6-.56-1.06-1.44-.28-.49-.03-.24.03-.14.17-.2.43-.19,1.05.09,1.05-.16.46-.35.1-.16.03-.27.1-.15.88-.39,1.61-.05,1.78.72.64.02.38-.1.72-.43.93-.82.64-.74.29-.74.56-1.92-.13-.95.05-.28,1.2-1.95.53-.56.7-.9.23-.4.28-.87.66-1.21.38-.41.89-.55.77-.15.48-.23.98-1.03.05-.21-.03-.83.15-.88.07-.15,1.94-1.47,2-1.34.02-.2-.28-.52-1.01-1.56-.03-.05-.5-1.58-.04-1.49,1.31-2.1.28-.3.23-.35.02-.4-.13-.32-.25-.31-.2-.54-.02-.64.16-.37.18-.4v-.61l-.11-.53-.13-.37-.11-.48-.02-.35.22-.4.16-.35.13-.21.07-.13.02-.21-.02-.27-.09-.19-.11-.19-.16-.24-.16-.27-.15-.42-.06-.55.13-.57.29-.47.44-.44.56-.36.77-.39.85-.24.97-.53.09-.21.17-1.3-.08-.9-.19-.65-.48-.42-.21-.33-.17-.48-.3-.34-.4-.22-.24-.29.47-1.02.25-.66.17-.64.02-.74-.06-.56-.26-1.03-1.11-2.82-.39-1.53-.91-2.14.1-.17.51-.38.23-.42.09-.46-.06-.33-.34-1.04-.24-.45-.47-1.3.02-.51.11-.44.19-.34.26-.15.88.05.25-.07,1.04-.78.2-.2.1-.31-.04-.97-.11-.26-.93-.83-.46-.42-.15-.31-.09-.23-.04-.26.02-.21.11-.23.17-.18.3-.24.32-.16.26-.21.08-.16v-.28s-.07-.32-.07-.32l-.34-.69-.79-.89-.79-.66-.35-.19-.61-.33-.15-.34-.06-.85.78-1.82.77-1.08.7-.34.53.15.19-.03,1.11-.63.55-.7,1.18-1.2.19-.31.09-.34.1-.15.64-.44.55-.5.37-.67.2-.08.44-.04.14-.13.1-.27-.02-.35-.28-.73-.03-.29.03-.25.19-.23.26-.1.47-.02.53-.22.73-.5.38-.44.26-.45.24-.76.14-1.34-.06-.67-.36-1.05-.09-.5v-.56s.2-1.94.2-1.94l.26-1.08.14-1.06.09-.14.61-.61.21-.59.65-.89.53-.58.48-.33.66-.21.53-.02,1.24.22,1.3-.82,1.14-.21.32-.15.7-.69.46-.95.38-.37.57-.19,1.37.06,1.32-.38.44-.26.98-.85,2.22-3.04.63-.53,1.38-.22.8.27,1.62-.5,1.14-.8.4-.5,1.26-.51.31-.27.24-.7-.11-1.09.08-.26.21-.21.91-.53.42-.36.4-.55,1.99-2.13,1.47-1.26.19-.21.05-.16.19-.38.14-.24.75-.34.24-.28.07-.23.09-.25.15-.26.24-.17.33-.02.4.02.71-.18h.27s.66,0,.66,0l.33-.24.18-.31.02-.4-.04-.36-.22-.75-.04-.37.11-.53-.27-1.07-.13-1.01.16-.71v-.32s-.32-.37-.32-.37l-1.87-1.66-1.33-3.01-.46-.76-.47-.6-.49-.4-.51-.31-.63-.24-.96-.73-1.64-.15-1.41-.48-.41-.42-.53-1.08-1.26-1.25-.39-.34-.47-.28-1.33-1.56-.37-.16-1.44-.09-.77-.3-.21-.18-.18-.23-.18-.39-.05-.9-.3-.53-.71-.75-1.29-.82-.78-.43-.81-.2-.52-1.12-.27-.39-.27-.27-.49-.19h-.34s-1.54.24-1.54.24l-.85.27-1.18.12-.24-.12-.35-.36-.9-1.05-.08-.36.03-.21.42-1.17.21-.78.02-.26-.17-1.53.08-.95.11-.48.38-1.12v-1.28s-.31-1.84-.31-1.84l-1-1.84-1.79-3.71-1.97-1.54-.84-1.53v-.57l-.04-.14.3-.33.25-.22.12-.21v-1.13s-.5-.58-.5-.58l-1.16-.95-.3-1.21v-.19s.13-.93.13-.93l-.13-.6-.32-.56-.6-.68-.25-.4-.02-.4-.08-.34.1-.6v-.16s-.02-.24-.02-.24l-.08-.24-.19-.37-.07-.26-.06-.37-.13-.3-.64-1.09-.35-.75-.33-1.48-.06-.81-.21-.53-.13-.22-.24-.14-.41-.08-.53-.21-.55-.43-.48-.8-.12-.12-.44-.31-.86-.46-.79-.33-.73-.44-.51-.62-.18-.36-.34-.46-.46-.53-1.23-.88-.75-.65-.66-.71-.68-.97-1.42-2.85-.41-1.6-.22-1.33-.54-1.51-.66-1.33-.63-.77-.95-.87-.41-.31-1.79-1.02-.47-.4-.77-.92-.42-.91-.09-.3-.18-1.5v-.48s.15-.85.15-.85l.52-1.69.04-.64-.31-1.31v-.47s.12-.84.12-.84l.28-1.13v-.61s0-.25,0-.25l-.21-.91-.38-1.06-.03-.87.07-.55.54-1.64.1-.75-.02-.8-.08-.4-.35-1.03-.42-.94-.15-1.64.13-1.09.51-1.29.61-1,2.34-1.99.35-.74.08-.61-.21-.87-.96-1.16-1.08-.79-2.33-1.09-.45-.75.28-.56,1.65-1.73,1.15-.47,2.38.08,1.3-.38,1.06-.7.66-1.4.36-3.41.04-2.86-.33-2.4-.31-.74-.59-.52-.41-2.85.05-1.15-.46-3.41-1.19-4.86.18-3.97-.96-3.98-.82-2.17-1.8-5.69-2.85-2.77-1.16-2.12-.27-.74-.22-2.44-.75-2.09-.54-1.13-.18-1.44.23-1.9.39-.62,1.23-.93.58-.85.13-.55-.06-.28-.32-.41-.21-.87-.11-2.56-.36-1.96.06-.4.69-1,.61-1.42.1-1.86-.55-1.17-2.17-3.16-1.41-1.4-.07-1.87.89-1.9.18-1.03-.3-.55-1.25-.82-.81-.85-.48-1v-.47s.93-3.12.93-3.12l.18-3.15-.65-1.85.29-2.98-1.51-2.26.25-.57.71-.62.92-2.26-.08-.45-.39-1.34v-.72l.24-.92,1.81-1.19.29-.67.16-.56.08-.39-.05-.23-.13-.52-.24-.75-2.2-2.32-.95-1.49.11-2.23-.94-.94-1.57-.95-.21-.35.33-1.75-.19-.83-1.22-1.91-.36-1.34.06-3.04.05-.49.26-.48,1.07-1.21.17-.89-.08-.45-.44-.62-.58-.31-.14-.45.03-.38v-.79l.42-.72.06-.58-.81-1.71-1.23-1.26-.16-.31v-.79s.21-.5.21-.5l.75-.89,1.25-1.04,2.16-.47h.86s4.96-1.37,4.96-1.37l.42-.37.34-.6,3.24-2.58.44.18.68,1.26.59.29.97-.55,1.27-1.16,2.89-1.35,3.01-.09,3.9.18.57.38.24.38-.02.46-.06.7-.09.4.04.46.15.24.26.13.69.13,1.04-.22,1.94-1.33.75-.13.6.16.58,1.12.54.61.23.06,2.23-1.47,1.17-1.34.52-.21.79-.02,3.82.6,1.03,1.83,2.96,3.15.97.36,2.33,3.27.31,1.07-.25.51-.73.66-.22.5.06.51.18.19,3.88,1.67,1.1,1.51.45.92.41.47,1.2.81,1.59.8.63.04,2.25-.19,2.44-.76,1.78-.94h1.19s1.41.54,1.41.54l.28-.1.41-.49,1.14-1.88.12-.78-.12-.9.15-.89,2.56-5.07.04-.25-.38-.55-.66-.55-.09-.25.1-.72.26-.43,1.13-.75.89-.04.38-.21,1.25-3.23,2.4-5.15.89-1.24,1.54-.67v-7.27s-.03-.76-.03-.76l-.13-2.6-.03-2.95.18-3.68-.07-1.44.2-9.32v-7.39s-.08-4.34-.08-4.34l-.23-3.78-.14-17.29-.06-.55-.05-4.47v-26.73s.06-16.43.06-16.43l-.07-6.12,9.71.05h0s114.56-.03,114.56-.03l40.88-.08h5.82s1.59,0,1.59,0h.54s19.65-.06,19.65-.06h1.29s109.1-.05,109.1-.05h.04s14.58.15,14.58.15l2.69-.09,13.88.04,7.71-.23,36.2-.12,14.33-.08v.04s3,0,3,0l11.33-.12,1.12.1,2.37.8,51.4-.09h2.4s.02.09.02.09l14.33-.08,28.66.03,14.94-.11h13.08s.37,0,.37,0l12.37-.02h.22s.55,0,.55,0h1.89s1.5,0,1.5,0h6.04s15.59.03,15.59.03Z"/>
  </g>
  <path class="cls-2" d="M455.83,353.04c0-74.47-60.37-134.83-134.83-134.83s-134.83,60.37-134.83,134.83,60.37,134.83,134.83,134.83,134.83-60.37,134.83-134.83ZM429.79,490.48c-29.83,23.68-67.67,37.84-108.79,37.84-96.83,0-175.28-78.46-175.28-175.28s78.46-175.28,175.28-175.28,175.28,78.46,175.28,175.28c0,41.12-14.16,78.96-37.84,108.79l112.84,112.84c7.92,7.92,7.92,20.73,0,28.57-7.92,7.84-20.73,7.92-28.57,0l-112.92-112.76Z"/>
</svg>