<?xml version="1.0" encoding="utf-8"?>
<!-- Generator: Adobe Illustrator 27.9.5, SVG Export Plug-In . SVG Version: 9.03 Build 54986)  -->
<svg version="1.1" id="Capa_1" xmlns="http://www.w3.org/2000/svg" xmlns:xlink="http://www.w3.org/1999/xlink" x="0px" y="0px"
	 viewBox="0 0 512 512" style="enable-background:new 0 0 512 512;" xml:space="preserve">
<style type="text/css">
	.st0{fill:#349991;}
</style>
<path class="st0" d="M256,0C114.6,0,0,114.6,0,256s114.6,256,256,256s256-114.6,256-256S397.4,0,256,0z M256,472
	c-119.3,0-216-96.7-216-216S136.7,40,256,40s216,96.7,216,216S375.3,472,256,472z"/>
<g>
	<path class="st0" d="M347.1,131.5c-4.1,0-8,0.7-11.6,1.9v-13.1c0-18.5-15.7-33.5-34.9-33.5c-4.6,0-8.8,0.8-12.9,2.4
		c-4-14.2-17.6-24.7-33.7-24.7S224.4,75,220.3,89.2c-4-1.5-8.3-2.4-12.9-2.4c-19.2,0-34.9,15-34.9,33.5v89.3
		c-9.7-7-21.8-11.2-34.9-11.2c-6.4,0-11.6,5-11.6,11.2v84c0,32.3,17.7,62.3,46.5,78.8v61.9c0,6.2,5.2,11.2,11.6,11.2H347
		c6.4,0,11.6-5,11.6-11.2v-64c15-16.1,23.3-36.6,23.3-58.3V165C382,146.5,366.3,131.5,347.1,131.5z M358.7,312
		c0,17.4-7.1,33.7-19.9,46c-2.2,2.1-3.4,4.9-3.4,7.9v57.3H195.8v-57.4c0-4.4-2.6-8.2-6.7-10c-24.6-11.9-39.9-35.7-39.9-62.1v-70.9
		c13.6,4.6,23.3,17,23.3,31.6v22.3c0,6.2,5.2,11.2,11.6,11.2c6.4,0,11.6-5,11.6-11.2c0-7.8,0-148.1,0-156.3
		c0-6.2,5.2-11.2,11.6-11.2c6.4,0,11.6,5,11.6,11.2V232c0,6.2,5.2,11.2,11.6,11.2c6.4,0,11.6-5,11.6-11.2V98
		c0-6.2,5.2-11.2,11.6-11.2s11.6,5,11.6,11.2v133.9c0,6.2,5.2,11.2,11.6,11.2s11.6-5,11.6-11.2V120.3c0-6.2,5.2-11.2,11.6-11.2
		s11.6,5,11.6,11.2v111.6c0,6.2,5.2,11.2,11.6,11.2s11.6-5,11.6-11.2v-67c0-6.2,5.2-11.2,11.6-11.2s11.6,5,11.6,11.2V312H358.7z"/>
</g>
</svg>
