<?xml version="1.0" encoding="utf-8"?>
<!-- Generator: Adobe Illustrator 27.9.5, SVG Export Plug-In . SVG Version: 9.03 Build 54986)  -->
<svg version="1.1" id="Capa_1" xmlns="http://www.w3.org/2000/svg" xmlns:xlink="http://www.w3.org/1999/xlink" x="0px" y="0px"
	 viewBox="0 0 48.4 48.4" style="enable-background:new 0 0 48.4 48.4;" xml:space="preserve">
<style type="text/css">
	.st0{fill:#349991;}
</style>
<path class="st0" d="M44.3,24.2c0,0.6,0,1.1-0.1,1.7c0,0.3,0,0.6-0.1,0.8c0,0.1,0,0.3-0.1,0.4c0.1-0.6,0,0,0,0.1
	c-0.2,1.1-0.4,2.2-0.8,3.3c-0.2,0.5-0.3,1-0.5,1.5c-0.2,0.4,0.2-0.4,0,0c-0.1,0.1-0.1,0.2-0.2,0.4c-0.1,0.3-0.3,0.6-0.4,0.8
	c-0.5,1-1.1,1.9-1.7,2.8c-0.2,0.2-0.3,0.4-0.5,0.6c0.4-0.5-0.2,0.2-0.3,0.3c-0.4,0.4-0.7,0.9-1.1,1.3c-0.4,0.4-0.7,0.7-1.1,1.1
	c-0.2,0.2-0.4,0.3-0.6,0.5c-0.1,0.1-0.2,0.2-0.3,0.2c-0.1,0.1-0.1,0.1-0.2,0.2c0.2-0.2,0.3-0.2,0.1-0.1c-0.9,0.7-1.8,1.3-2.8,1.8
	c-0.5,0.3-0.9,0.5-1.4,0.7c-0.1,0.1-0.2,0.1-0.4,0.2c-0.4,0.2,0.4-0.2,0,0c-0.3,0.1-0.6,0.2-0.9,0.3c-1.1,0.4-2.1,0.7-3.2,0.9
	c-0.3,0.1-0.5,0.1-0.8,0.1c-0.1,0-0.6,0.1,0,0c-0.1,0-0.3,0-0.4,0.1c-0.6,0.1-1.2,0.1-1.8,0.1c-1.2,0-2.3,0-3.5-0.2
	c-0.5-0.1,0.5,0.1,0,0c-0.1,0-0.3,0-0.4-0.1c-0.3,0-0.5-0.1-0.8-0.1c-0.6-0.1-1.1-0.3-1.7-0.4c-0.5-0.1-1-0.3-1.5-0.5
	c-0.2-0.1-0.5-0.2-0.7-0.3c0.5,0.2,0.1,0,0,0c-0.2-0.1-0.3-0.1-0.5-0.2c-1-0.5-1.9-1-2.9-1.6c-0.2-0.1-0.4-0.3-0.6-0.4
	c-0.1-0.1-0.8-0.6-0.3-0.2c-0.4-0.3-0.9-0.7-1.3-1.1c-0.8-0.7-1.5-1.5-2.2-2.4c-0.1-0.1-0.2-0.2-0.2-0.3c0.3,0.4,0.1,0.1,0,0
	c-0.2-0.3-0.4-0.5-0.5-0.7c-0.3-0.5-0.6-0.9-0.9-1.4S6.1,33.5,5.9,33c-0.1-0.2-0.2-0.5-0.3-0.7c-0.1-0.1-0.1-0.2-0.2-0.4
	c0.2,0.6,0,0-0.1-0.1c-0.4-1-0.7-2.1-1-3.2C4.2,28,4.1,27.5,4.1,27c-0.1-0.5,0.1,0.5,0,0c0-0.1,0-0.3,0-0.4c0-0.3-0.1-0.6-0.1-1
	c-0.1-1.2-0.1-2.3,0.1-3.5c0-0.3,0.1-0.5,0.1-0.8c-0.1,0.6,0-0.3,0.1-0.4c0.1-0.6,0.2-1.2,0.4-1.7c0.1-0.5,0.3-1,0.5-1.5
	c0.1-0.3,0.2-0.5,0.3-0.8c0-0.1,0.1-0.2,0.1-0.4c0-0.1,0.1-0.2,0.1-0.2c-0.1,0.3-0.1,0.3,0,0.1c0.4-1,1-2,1.5-2.9
	c0.1-0.5,0.4-1,0.7-1.4c0-0.1,0.1-0.2,0.2-0.3c0.3-0.4-0.3,0.4,0,0c0.2-0.2,0.4-0.5,0.6-0.7c0.7-0.8,1.5-1.6,2.3-2.3
	c0.2-0.2,0.4-0.3,0.6-0.5c0.1-0.1,0.5-0.4,0,0c0.1-0.1,0.2-0.2,0.3-0.3c0.5-0.3,0.9-0.7,1.4-1c0.9-0.6,1.9-1.1,2.9-1.5
	c0.4-0.2-0.4,0.2,0,0c0.1-0.1,0.2-0.1,0.4-0.1c0.2-0.1,0.5-0.2,0.8-0.3c0.5-0.2,1.1-0.4,1.7-0.5c0.5-0.1,1.1-0.3,1.6-0.3
	c0.3,0,0.5-0.1,0.8-0.1c-0.6,0.1-0.1,0,0,0c0.2,0,0.4,0,0.5-0.1C23.2,4,24.3,4,25.5,4c0.3,0,0.6,0,0.8,0.1c0.2,0,1.1,0.1,0.4,0
	c0.6,0.1,1.2,0.2,1.7,0.3c1.1,0.2,2.2,0.6,3.2,1c0.1,0,0.2,0.1,0.4,0.1c-0.5-0.2-0.1,0,0,0c0.2,0.1,0.5,0.2,0.7,0.3
	c0.5,0.2,1,0.5,1.5,0.8s0.9,0.5,1.3,0.8c0.2,0.1,0.4,0.3,0.6,0.5c0.1,0.1,0.2,0.2,0.3,0.2c-0.5-0.4,0,0,0.1,0.1
	c0.8,0.7,1.6,1.4,2.4,2.2c0.4,0.4,0.7,0.8,1,1.2s-0.3-0.4,0,0c0.1,0.1,0.2,0.2,0.2,0.3c0.2,0.2,0.4,0.5,0.5,0.8
	c0.6,0.9,1.1,1.9,1.6,2.9c0.1,0.2,0.2,0.5,0.3,0.7c-0.2-0.6,0.1,0.2,0.1,0.4c0.2,0.5,0.4,1.1,0.6,1.6c0.2,0.5,0.3,1,0.4,1.6
	c0.1,0.3,0.1,0.5,0.2,0.8c0,0.1,0,0.3,0.1,0.4c0,0.1,0,0.2,0,0.3c0-0.3,0-0.3,0-0.1C44.2,22.3,44.3,23.3,44.3,24.2c0,1.1,0.9,2,2,2
	s2-0.9,2-2c0-4.8-1.4-9.5-4.1-13.4C41.6,7,38,3.8,33.7,2c-4.6-2-9.6-2.5-14.5-1.5C14.6,1.4,10.3,3.8,7,7c-6.8,6.8-9,17.4-5.3,26.3
	c1.9,4.4,4.9,8.2,8.9,10.9c3.9,2.7,8.7,4.1,13.4,4.1c9.5,0.1,18.5-5.7,22.3-14.5c1.3-3.1,2-6.4,2.1-9.7c0-1.1-0.9-2-2-2
	C45.2,22.2,44.3,23.1,44.3,24.2z"/>
<g>
	<g>
		<g>
			<path class="st0" d="M11.3,10L11.3,10c-0.4,0-0.7,0.1-0.9,0.4c-0.3,0.3-0.4,0.6-0.4,1v19.9c0,0.7,0.6,1.3,1.3,1.3
				c3.1,0,8.3,0.7,11.8,4.4V16.1c0-0.2-0.1-0.5-0.2-0.7C20.1,10.7,14.4,10,11.3,10z"/>
			<path class="st0" d="M38.4,31.3V11.4c0-0.4-0.1-0.7-0.4-0.9c-0.2-0.2-0.6-0.4-0.9-0.4l0,0c-3.1,0-8.7,0.7-11.7,5.4
				c-0.1,0.2-0.2,0.4-0.2,0.7V37c3.6-3.7,8.8-4.4,11.8-4.4C37.8,32.6,38.4,32,38.4,31.3z"/>
			<path class="st0" d="M41.4,14.6h-1v16.6c0,1.9-1.5,3.4-3.4,3.4c-2.6,0-6.9,0.5-10,3.4c5.3-1.3,10.9-0.5,14.1,0.3
				c0.4,0.1,0.8,0,1.1-0.3s0.5-0.6,0.5-1V15.9C42.8,15.2,42.2,14.6,41.4,14.6z"/>
			<path class="st0" d="M7.9,31.3V14.6H7c-0.7,0-1.3,0.6-1.3,1.3V37c0,0.4,0.2,0.8,0.5,1c0.3,0.3,0.7,0.3,1.1,0.3
				c3.2-0.7,8.8-1.6,14.1-0.3c-3.1-2.9-7.4-3.4-10-3.4C9.5,34.6,7.9,33.1,7.9,31.3z"/>
		</g>
	</g>
</g>
</svg>
