<?xml version="1.0" encoding="utf-8"?>
<!-- Generator: Adobe Illustrator 27.9.5, SVG Export Plug-In . SVG Version: 9.03 Build 54986)  -->
<svg version="1.1" id="Capa_1" xmlns="http://www.w3.org/2000/svg" xmlns:xlink="http://www.w3.org/1999/xlink" x="0px" y="0px"
	 viewBox="0 0 800 800" style="enable-background:new 0 0 800 800;" xml:space="preserve">
<style type="text/css">
	.st0{fill:#349991;}
</style>
<g>
	<path class="st0" d="M797.7,270.8c-3.1-7.5-9-13.4-16.5-16.5L258.7,37.9c-15.6-6.5-33.5,0.9-39.9,16.5L2.3,576.9
		c-3.1,7.5-3.1,15.9,0,23.4c3.1,7.5,9,13.4,16.5,16.5l350.8,145.3c3.7,1.5,7.7,2.3,11.7,2.3c4,0,7.9-0.8,11.7-2.3l242.7-100.5
		c7.5-3.1,13.4-9,16.5-16.5l145.3-350.8C800.8,286.7,800.8,278.3,797.7,270.8z M437.9,677.4l31.2-75.2l75.2,31.2L437.9,677.4z
		 M607.6,593.4L464.2,534c-15.6-6.5-33.5,0.9-39.9,16.5L364.9,694L70.5,572l193-466l466,193L607.6,593.4z"/>
	<polygon class="st0" points="671.7,392.6 628,287.2 336,408.2 286.4,288.5 181,332.2 274.2,557.3 	"/>
</g>
</svg>
